<svg width="40" height="40" viewBox="0 0 40 40" fill="none" xmlns="http://www.w3.org/2000/svg">
<circle cx="20" cy="20" r="20" fill="url(#paint0_linear_114_10)"/>
<path fill-rule="evenodd" clip-rule="evenodd" d="M13 12C13 11.4696 13.2107 10.9609 13.5858 10.5858C13.9609 10.2107 14.4696 10 15 10H25C25.5304 10 26.0391 10.2107 26.4142 10.5858C26.7893 10.9609 27 11.4696 27 12V13.86C26.9999 14.6831 26.7966 15.4935 26.4081 16.2192C26.0196 16.9449 25.458 17.5635 24.773 18.02L21.803 20L24.773 21.98C25.458 22.4365 26.0196 23.0551 26.4081 23.7808C26.7966 24.5065 26.9999 25.3169 27 26.14V28C27 28.5304 26.7893 29.0391 26.4142 29.4142C26.0391 29.7893 25.5304 30 25 30H15C14.4696 30 13.9609 29.7893 13.5858 29.4142C13.2107 29.0391 13 28.5304 13 28V26.14C13 25.3169 13.2032 24.5066 13.5915 23.7809C13.9798 23.0552 14.5412 22.4366 15.226 21.98L18.197 20L15.227 18.02C14.542 17.5635 13.9804 16.9449 13.5919 16.2192C13.2034 15.4935 13.0001 14.6831 13 13.86V12ZM20 18.798L23.664 16.355C24.0748 16.0812 24.4117 15.7102 24.6447 15.2749C24.8778 14.8397 24.9998 14.3537 25 13.86V12H15V13.86C15.0002 14.3537 15.1222 14.8397 15.3553 15.2749C15.5883 15.7102 15.9252 16.0812 16.336 16.355L20 18.798ZM20 21.202L16.336 23.645C15.9252 23.9188 15.5883 24.2898 15.3553 24.7251C15.1222 25.1603 15.0002 25.6463 15 26.14V28H25V26.14C24.9998 25.6463 24.8778 25.1603 24.6447 24.7251C24.4117 24.2898 24.0748 23.9188 23.664 23.645L20 21.202Z" fill="white"/>
<defs>
<linearGradient id="paint0_linear_114_10" x1="30.5" y1="6" x2="-2" y2="45" gradientUnits="userSpaceOnUse">
<stop offset="0.132291" stop-color="#F5805E"/>
<stop offset="0.538541" stop-color="#FFC074"/>
<stop offset="0.8875" stop-color="#FFA63A"/>
</linearGradient>
</defs>
</svg>
