<?xml version="1.0" standalone="no"?>
<!DOCTYPE svg PUBLIC "-//W3C//DTD SVG 20010904//EN"
 "http://www.w3.org/TR/2001/REC-SVG-20010904/DTD/svg10.dtd">
<svg version="1.0" xmlns="http://www.w3.org/2000/svg"
 width="700.000000pt" height="700.000000pt" viewBox="0 0 700.000000 700.000000"
 preserveAspectRatio="xMidYMid meet">
<metadata>
Created by potrace 1.14, written by Peter Selinger 2001-2017
</metadata>
<g transform="translate(0.000000,700.000000) scale(0.100000,-0.100000)"
fill="#000000" stroke="none">
<path d="M3220 6994 c-182 -20 -243 -29 -360 -50 -707 -128 -1391 -497 -1887
-1018 -555 -583 -892 -1325 -963 -2116 -13 -148 -13 -472 0 -620 74 -819 430
-1581 1015 -2165 590 -590 1355 -946 2183 -1016 179 -15 582 -6 742 16 663 91
1268 354 1779 773 148 121 378 353 498 504 432 539 685 1158 759 1850 22 212
15 635 -15 828 -72 467 -199 848 -410 1223 -499 892 -1352 1520 -2344 1726
-253 53 -358 63 -672 66 -159 2 -306 1 -325 -1z m1282 -1772 c75 -31 150 -101
185 -177 28 -60 28 -62 31 -295 4 -252 -4 -335 -42 -448 -49 -143 -124 -260
-230 -360 -36 -34 -192 -145 -346 -248 -154 -103 -280 -191 -280 -194 0 -4
127 -91 283 -195 351 -234 436 -313 522 -485 81 -161 98 -264 93 -575 l-3
-240 -34 -63 c-42 -77 -104 -134 -180 -164 l-56 -23 -910 -3 c-651 -2 -927 0
-970 8 -114 22 -204 91 -257 198 -22 46 -23 53 -23 332 0 320 7 365 81 513 96
190 172 262 532 502 155 104 282 191 282 195 0 4 -127 91 -282 195 -368 245
-446 320 -537 517 -70 151 -76 188 -76 498 l0 275 26 56 c50 106 138 176 249
198 25 5 459 8 965 8 l920 -2 57 -23z"/>
<path d="M2620 4713 c0 -204 11 -274 56 -369 56 -118 90 -147 470 -401 l354
-236 353 235 c262 175 364 249 394 285 108 131 133 220 133 485 l0 188 -880 0
-880 0 0 -187z"/>
<path d="M3142 3055 c-299 -200 -359 -244 -397 -293 -101 -127 -125 -218 -125
-479 l0 -183 880 0 880 0 0 188 c0 258 -23 346 -124 474 -39 48 -98 92 -391
288 -190 127 -351 233 -358 236 -7 2 -171 -102 -365 -231z"/>
</g>
</svg>
